<?xml version="1.0" encoding="utf-8"?>
<!-- Generator: Adobe Illustrator 28.0.0, SVG Export Plug-In . SVG Version: 6.00 Build 0)  -->
<svg version="1.1" id="Layer_1" xmlns="http://www.w3.org/2000/svg" xmlns:xlink="http://www.w3.org/1999/xlink" x="0px" y="0px"
	 viewBox="0 0 1000 382.3" style="enable-background:new 0 0 1000 382.3;" xml:space="preserve">
<path d="M882,159.4c11.2,10.2,21.8,19.9,32.6,29.4c2.7,2.4,4.4,4.6,4.4,8.4c0,3.9-1.1,6.6-4.2,9.2c-8.6,7.3-16.9,15.1-25.3,22.8
	c-2.3,2.1-4.3,4.4-6.2,6.4c0.2,1,0.2,1.6,0.4,1.9c20,24,32.7,51.8,39.6,82c2.3,9.8,7.5,15.3,16.3,18.6c1.7,0.6,3.3,1.4,5.5,2.3
	c0,2.8,0.1,5.6,0,8.4c-0.2,6.1-1,7-7.4,7.1c-15,0.1-29.9,0-44.9,0c-5.2,0-10.3,0.1-15.5,0c-6.1-0.2-6.9-1.1-7.1-7.4
	c-0.1-2.1,0-4.1,0.1-6.2c0-0.7,0.4-1.5,0.6-2.3c3-0.8,6.1-1.4,9-2.4c6.8-2.5,9.5-7.4,8-14.6c-2.7-13.2-7.9-25.5-14.4-37.3
	c-3.8-6.9-7.9-13.7-11.8-20.4c-1.3,0.4-2,0.5-2.2,0.8c-11.2,16.8-20.6,34.5-25.4,54.2c-2.7,11.1,0.2,15.8,11.1,18.6
	c1.7,0.4,3.4,0.8,5,1.1c0.3,0.8,0.6,1.3,0.6,1.7c0.9,16.6-0.7,14.3-13.2,14.3c-17.3,0-34.5,0-51.8,0c-9.3,0-9.7-0.5-9.6-9.5
	c0-2,0.3-4.1,0.4-6.1c1.7-0.7,3-1.4,4.5-1.9c9.1-3.2,14.7-8.7,17.1-18.9c7.1-30.5,19.7-58.5,40.5-82.9c-1.5-1.8-2.8-3.7-4.4-5.2
	c-8.2-7.8-16.4-15.6-24.9-23.1c-9.5-8.4-9.6-13.4-0.2-21.6c8-6.9,15.6-14.2,23.4-21.4c2-1.9,3.8-4.1,5.6-6.1c-0.5-1.2-0.6-2-1.1-2.6
	c-19.8-23.9-32.1-51.5-39-81.5c-2.2-9.5-7.4-14.8-15.8-18.2c-1.9-0.7-3.7-1.6-5.4-2.3c-1.7-15.4-1.7-15.4,12.6-15.4
	c17.5,0,35.1,0,52.6,0c8.8,0,9.1,0.3,9.1,9.2c0,2-0.2,4-0.4,6.4c-2.9,0.7-5.7,1.3-8.3,2.1c-7.7,2.6-10.5,7.5-8.8,15.5
	c4.6,21,14.8,39.3,26.2,57.4c1-0.6,1.9-0.8,2.3-1.3c11-16.6,20.3-34.1,25.1-53.6c2.8-11.6,0-16.1-11.5-18.9c-1.5-0.4-3-0.8-4.2-1.1
	c-0.4-0.7-0.9-1.1-0.9-1.6c-1-17.2,0.7-14,13.1-14.1c17.5-0.1,35.1-0.1,52.6,0c8.5,0,8.8,0.4,8.9,8.6c0,2.1,0,4.1,0,6.4
	c-3.7,1.7-7.2,3.1-10.6,4.9c-4.7,2.4-8.6,5.6-9.9,11.2C917.5,102.8,904.7,132.6,882,159.4z M860.9,214.5c7-5.7,13.7-11.1,20.9-17
	c-7.3-5.9-14.1-11.3-21.1-17c-6.9,5.7-13.6,11.1-20.7,16.9C847.1,203.3,853.7,208.6,860.9,214.5z"/>
<path d="M55,340.1c3.5-2.6,6.9-4.9,10.1-7.5c5.7-4.6,8.5-10.3,8.5-18c0.1-87.3,0.5-174.6,0.8-262c0-3.3,0-6.6,0-10
	c1.5-0.9,2.7-1.4,3.7-2.1c4.8-3.2,9-3,14.1,0.1c9.1,5.6,19.2,8.9,29.8,9.9c12.8,1.3,25.6,2.5,38.5,3c11.6,0.5,21.9-2.9,29.1-12.9
	c2-2.8,4.3-3.3,7.3-1.4c2.3,1.6,4.8,3,7.7,4.8c-2.6,20.9-5.1,41.7-7.8,63.6c-4,0-7.8,0.3-11.5-0.1c-1.5-0.2-3.3-1.5-4.1-2.8
	c-6-9.5-15-14.7-25.6-17.3c-14.2-3.5-28.5-6.8-43.5-10.3c0,45,0,88.9,0,133.3c10.7,0,21.2,0.3,31.7-0.1c6.1-0.2,12.3-1.2,18.3-2.6
	c7.8-1.8,14.1-6.1,18.5-12.9c3.9-5.9,4-5.8,10.4-2.9c1.9,0.8,3.7,1.8,5.6,2.7c0,21.3,0,42.3,0,63.9c-2.7,0.5-5.1,0.9-7.6,1.4
	c-3.8,0.9-6.7,0.2-9.3-3.3c-4.9-6.3-11.6-10.4-19.5-11.7c-15.7-2.5-31.5-4.5-48.3-6.8c-0.2,3.8-0.4,6.6-0.4,9.3
	c0,21.9,0.3,43.8-0.2,65.7c-0.2,9,3.3,15.3,10.1,20.5c1,0.8,2.1,1.6,3.1,2.3c5.3,3.7,7.2,8.9,5.5,15c-0.8,3.2-3.1,3.7-5.9,3.7
	c-6.2,0-12.4,0-18.6,0c-13.9,0-27.8,0-41.8,0c-8.7,0-9-0.4-9-9.3C55,343.7,55,341.9,55,340.1z"/>
<path d="M690,144.3c0,3.4,0,6.2,0,9c0,52.6,0.3,105.1-0.2,157.7c-0.1,12,4.4,20.2,14.1,26.4c1.9,1.2,4.4,2.8,4.8,4.6
	c0.7,3.4,0.3,7.2-0.2,10.7c-0.1,1-2,2.2-3.3,2.6c-1.4,0.5-3.1,0.3-4.6,0.3c-19.6,0-39.2,0-58.8,0c-1.5,0-3.2,0.1-4.6-0.3
	c-1.1-0.3-2.7-1.3-2.9-2.2c-0.5-3.5-1-7.2-0.4-10.7c0.3-1.8,2.8-3.3,4.4-4.8c2.1-1.9,4.5-3.4,6.7-5.3c5.1-4.5,7.7-10,7.6-17
	c-0.2-12.9-0.1-25.8-0.1-38.6c0-41.2,0-82.4,0-123.7c0-2.8,0-5.6,0-8.8c-2.3-1-4.3-2-6.4-2.9c-9.1-4-17-9.7-23.4-17.4
	c-15.6-18.7-15.5-45.4,0.2-63.9c24.8-29.4,72.5-29.7,97.8-0.6c16.6,19.1,16.5,46.7-0.2,65.7C712.4,134.2,702.4,140.3,690,144.3z
	 M695.9,92.2c0.1-9.4-2.7-17.7-9.6-24.4c-8.3-8-20.1-8-28.5-0.1c-13.1,12.2-13.1,36.5-0.1,48.8c8.4,8,20.1,8,28.5,0.1
	C693.1,110,696,101.7,695.9,92.2z"/>
<path d="M559,284.4c5,0,9.1,0,14,0c2.7,21.3,5.3,42.4,8,63.5c-1.7,1.1-2.9,2-4.2,2.8c-7.2,4.4-7.3,4.5-13.2-2.1
	c-6.3-7-14.6-10.2-23.5-10c-25.8,0.3-51.7,0.6-74.8,14.7c-2.5,1.5-4.7,1.6-7.2,0.2c-2.2-1.2-4.6-2.2-7.5-3.6c0-2.5,0-5.1,0-7.6
	c-0.3-87.3-0.8-174.6-0.7-261.9c0-10.9-3.7-18.8-12.7-23.6c-6.6-3.5-6.3-8.6-6-14.3c0.2-3.1,1.8-4.7,4.9-4.8c3.4,0,6.7-0.1,10.1-0.1
	c16.8,0,33.5,0,50.3,0c10.2,0,10.3,0.1,10.1,10.4c0,1.5-0.2,3.1-0.3,4.2c-4.1,3.3-8.1,6.1-11.8,9.3c-4.6,4.1-6.7,9.3-6.7,15.8
	c0.1,77,0.1,154,0.1,231c0,1.8,0.2,3.6,0.3,6.2c7.9-1.6,15.3-3,22.7-4.6c6.5-1.4,13-3.1,19.5-4.8C542.6,302.1,553,296.4,559,284.4z"
	/>
<path d="M301.6,290c13.2,3.2,25.5,5.7,37.6,9.2c9.4,2.6,16.7,0.7,22.5-7c0.9-1.2,1.8-2.5,2.8-3.7c5.1,2.5,9.4,4.7,14.6,7.3
	c-8.6,20.1-17.1,39.8-25.8,60.1c-5.2-1.7-9.8-3.1-14.9-4.8c0.4-4.6,0.7-8.8,1.2-13.1c0.7-6.1-1.7-10.3-7-13.4
	c-7.2-4.2-14.8-7.2-23.1-8.1c-17.1-2-34.2-3.9-52.5-6c-1-2.6-2.4-6.4-3.9-10.6c1.7-2.2,3.4-4.4,5.1-6.7c11-14.9,21.9-29.9,32.9-44.8
	c21.6-29.4,18.1-79.1-0.1-103.7c-10.6-14.3-20.5-29.1-31.7-42.8c-5.6-6.9-6.7-12.7-1.4-20c8.7-0.6,17.7-0.9,26.6-1.9
	c10.2-1.1,20.5-2.3,30.5-4.6c6.6-1.5,12.9-4.9,19.1-7.9c4.4-2.1,6-6.1,5.7-10.9c-0.4-4.6-0.8-9.2-1.3-14.4c4.7-1.6,9.2-3.1,14.8-5
	c8.6,20,17.1,39.7,26,60.3c-5,2.5-9.5,4.7-14,7c-2.6-2.6-4.8-5.1-7.3-7.4c-4-3.7-8.5-5.3-14.2-3.8c-9.9,2.6-20,4.9-30,7.2
	c-3.7,0.8-7.5,1.2-12.2,2c1.6,2,2.7,3.6,4,5c9.9,10.2,18.9,21.2,25.5,33.8c19.2,37,19.1,74.1-0.1,111c-6.2,12-14.7,22.3-24,32.1
	C305.1,286,303.4,287.9,301.6,290z"/>
</svg>
